<?xml version="1.0" encoding="UTF-8"?>
<svg width="64" height="64" version="1.1" viewBox="0 0 64 64" xmlns="http://www.w3.org/2000/svg">
 <g transform="matrix(1.2762 0 0 1.2762 .41507 -.41323)">
  <path d="m4.2 12.4 5-0.6 5.6 4.4 4.4-5.8 24.8-3.1 3.7 29.8-24.8 3.1-4.4 5.6-5.6-4.4-5 0.6z" fill="#42381e" stroke="#42381e"/>
  <path d="m1.8 9.7 5-0.6 5.6 4.4 4.3-5.6 24.8-3.1 3.7 29.8-24.8 3.1-4.4 5.5-5.5-4.3-5 0.6z" fill="#fbead2" stroke="#947e43"/>
  <path d="m16.6 23 3.5-4.5 0.4 3 6.9-0.9-0.9-6.9-3 0.4 3.5-4.5 4.5 3.5-3 0.4 0.9 6.9 6.9-0.9-0.4-3 4.5 3.5-3.5 4.5-0.4-3-6.9 0.9 0.9 6.9 3-0.4-3.5 4.5-4.5-3.5 3-0.4-0.9-6.9-6.9 0.9 0.4 3z" fill="#214478"/>
 </g>
</svg>
